<svg width="68" height="68" viewBox="0 0 68 68" fill="none" xmlns="http://www.w3.org/2000/svg">
    <g clip-path="url(#clip0_38_2)">
    <path d="M54.5521 45.2739L54.1825 59.1808L34.4031 47.7612L46.6384 26.569L66.4178 37.9887L54.5521 45.2739Z" fill="#0081AF"/>
    <path d="M33.1648 10.1613L37.4009 12.6054L6.42306 66.2959L2.18689 63.8518L33.1648 10.1613ZM41.9706 9.59018C43.3163 7.24574 42.5144 4.25293 40.1792 2.90468C37.8415 1.54723 34.8395 2.35162 33.4937 4.69606C32.1455 7.03128 32.9474 10.0241 35.2851 11.3816C37.632 12.7365 40.6248 11.9346 41.9706 9.59018Z" fill="#CCCCCC"/>
    <path d="M37.6645 12.1662L58.858 24.4024L46.6221 45.596L25.4283 33.3598L37.6645 12.1662Z" fill="#0081AF"/>
    <path d="M32.9557 46.8166C32.7332 47.2019 32.6828 47.6398 32.7913 48.045C32.8974 48.441 33.1626 48.8042 33.5479 49.0267L53.2343 60.2837C53.7247 60.5668 54.3376 60.5704 54.8439 60.2867C55.341 60.0054 55.6652 59.4842 55.6811 58.9174L56.0563 46.0256L67.1328 39.2578C67.625 38.9581 67.9167 38.4259 67.9117 37.8548C67.8975 37.2862 67.5996 36.7639 67.1 36.4832L57.0058 30.7098L60.184 25.2589C60.6382 24.4858 60.3741 23.5004 59.5943 23.058L41.47 12.6951C42.2265 12.1667 42.8834 11.4873 43.3756 10.635C44.2476 9.13794 44.482 7.39728 44.0354 5.73051C43.5888 4.06374 42.5155 2.67345 41.0117 1.81304C39.508 0.952634 37.7606 0.729962 36.0754 1.18151C34.3994 1.63059 32.9882 2.69959 32.1254 4.19414C31.2533 5.69115 31.0189 7.43182 31.4655 9.09859C31.5272 9.3288 31.6073 9.55409 31.685 9.77016L0.795503 62.7869C0.579781 63.1605 0.520128 63.6009 0.631164 64.0153C0.742199 64.4297 1.01405 64.7813 1.38769 64.997L5.60704 67.4097C6.38688 67.8521 7.38142 67.5856 7.82634 66.815L26.0372 35.583L36.1315 41.3564L32.9557 46.8166ZM37.4978 45.4613L38.9429 42.9719L41.8921 44.659L37.4978 45.4613ZM63.0984 37.9404L53.5989 43.7428C53.132 44.0259 52.8329 44.5304 52.8212 45.0764L52.4986 56.1381L39.0791 48.4526L46.8231 47.0389L46.8876 47.0216C46.906 47.0167 46.9361 47.0185 46.9545 47.0135C46.9914 47.0037 47.0165 46.9871 47.0441 46.9797C47.0994 46.9648 47.143 46.9433 47.1958 46.9193C47.2393 46.8977 47.2829 46.8762 47.3357 46.8522C47.386 46.819 47.4296 46.7974 47.4799 46.7642C47.521 46.7334 47.5621 46.7027 47.594 46.6744C47.6327 46.6344 47.6738 46.6037 47.7124 46.5637C47.751 46.5238 47.7805 46.4863 47.8099 46.4488C47.8486 46.4088 47.8755 46.3621 47.9025 46.3154C47.916 46.292 47.9319 46.2779 47.9387 46.2662L55.3603 33.5195L63.0984 37.9404ZM34.9485 5.81631C35.3892 5.06657 36.0855 4.53453 36.9235 4.30999C37.7615 4.08545 38.6398 4.19555 39.3871 4.62699C40.1344 5.05843 40.6756 5.75234 40.8977 6.58112C41.1198 7.4099 41.0072 8.279 40.5665 9.02874C39.6675 10.5725 37.6692 11.1079 36.128 10.2181C34.6242 9.35764 34.0764 7.31332 34.9485 5.81631ZM4.44602 63.003L33.7911 12.6208L35.1873 13.4113L5.84469 63.8027L4.44602 63.003ZM38.2666 14.5898L56.5452 25.0495L45.9453 43.2472L27.6668 32.7875L38.2666 14.5898Z" fill="#211F1E"/>
    <path d="M37.8457 25.6201L38.3687 32.0466L50 28.7251" stroke="#211F1E" stroke-width="3" stroke-linecap="round" stroke-linejoin="round"/>
    </g>
    <defs>
    <clipPath id="clip0_38_2">
    <rect width="68" height="68" fill="white"/>
    </clipPath>
    </defs>
    </svg>
    