<svg width="144" height="91" viewBox="0 0 144 91" fill="none" xmlns="http://www.w3.org/2000/svg">
<path d="M83.8939 59.384C82.1232 59.384 80.4912 59.1067 78.9979 58.552C77.5259 57.976 76.2352 57.1653 75.1259 56.12C74.0379 55.0747 73.1845 53.848 72.5659 52.44C71.9685 51.032 71.6699 49.4853 71.6699 47.8C71.6699 46.1147 71.9685 44.568 72.5659 43.16C73.1845 41.752 74.0485 40.5253 75.1579 39.48C76.2672 38.4347 77.5685 37.6347 79.0619 37.08C80.5552 36.504 82.1979 36.216 83.9899 36.216C85.9739 36.216 87.7552 36.5467 89.3339 37.208C90.9339 37.8693 92.2779 38.8293 93.3659 40.088L90.0379 43.16C89.2272 42.3067 88.3419 41.6773 87.3819 41.272C86.4219 40.8453 85.3765 40.632 84.2459 40.632C83.1579 40.632 82.1659 40.8027 81.2699 41.144C80.3739 41.4853 79.5952 41.976 78.9339 42.616C78.2939 43.256 77.7925 44.0133 77.4299 44.888C77.0885 45.7627 76.9179 46.7333 76.9179 47.8C76.9179 48.8453 77.0885 49.8053 77.4299 50.68C77.7925 51.5547 78.2939 52.3227 78.9339 52.984C79.5952 53.624 80.3632 54.1147 81.2379 54.456C82.1339 54.7973 83.1152 54.968 84.1819 54.968C85.2059 54.968 86.1979 54.808 87.1579 54.488C88.1392 54.1467 89.0885 53.5813 90.0059 52.792L92.9499 56.536C91.7339 57.4533 90.3152 58.1573 88.6939 58.648C87.0939 59.1387 85.4939 59.384 83.8939 59.384ZM88.2139 55.864V47.448H92.9499V56.536L88.2139 55.864ZM102.533 45.624H113.317V49.656H102.533V45.624ZM102.917 54.84H115.109V59H97.7654V36.6H114.693V40.76H102.917V54.84ZM130.114 59.384C128.343 59.384 126.701 59.096 125.186 58.52C123.693 57.944 122.391 57.1333 121.282 56.088C120.194 55.0427 119.341 53.816 118.722 52.408C118.125 51 117.826 49.464 117.826 47.8C117.826 46.136 118.125 44.6 118.722 43.192C119.341 41.784 120.205 40.5573 121.314 39.512C122.423 38.4667 123.725 37.656 125.218 37.08C126.711 36.504 128.333 36.216 130.082 36.216C131.853 36.216 133.474 36.504 134.946 37.08C136.439 37.656 137.73 38.4667 138.818 39.512C139.927 40.5573 140.791 41.784 141.41 43.192C142.029 44.5787 142.338 46.1147 142.338 47.8C142.338 49.464 142.029 51.0107 141.41 52.44C140.791 53.848 139.927 55.0747 138.818 56.12C137.73 57.144 136.439 57.944 134.946 58.52C133.474 59.096 131.863 59.384 130.114 59.384ZM130.082 54.968C131.085 54.968 132.002 54.7973 132.834 54.456C133.687 54.1147 134.434 53.624 135.074 52.984C135.714 52.344 136.205 51.5867 136.546 50.712C136.909 49.8373 137.09 48.8667 137.09 47.8C137.09 46.7333 136.909 45.7627 136.546 44.888C136.205 44.0133 135.714 43.256 135.074 42.616C134.455 41.976 133.719 41.4853 132.866 41.144C132.013 40.8027 131.085 40.632 130.082 40.632C129.079 40.632 128.151 40.8027 127.298 41.144C126.466 41.4853 125.73 41.976 125.09 42.616C124.45 43.256 123.949 44.0133 123.586 44.888C123.245 45.7627 123.074 46.7333 123.074 47.8C123.074 48.8453 123.245 49.816 123.586 50.712C123.949 51.5867 124.439 52.344 125.058 52.984C125.698 53.624 126.445 54.1147 127.298 54.456C128.151 54.7973 129.079 54.968 130.082 54.968Z" fill="white"/>
<path d="M47.0154 85V68.2H54.2874C55.7914 68.2 57.0874 68.448 58.1754 68.944C59.2634 69.424 60.1034 70.12 60.6954 71.032C61.2874 71.944 61.5834 73.032 61.5834 74.296C61.5834 75.544 61.2874 76.624 60.6954 77.536C60.1034 78.448 59.2634 79.152 58.1754 79.648C57.0874 80.128 55.7914 80.368 54.2874 80.368H49.1754L50.9034 78.616V85H47.0154ZM50.9034 79.048L49.1754 77.2H54.0714C55.2714 77.2 56.1674 76.944 56.7594 76.432C57.3514 75.92 57.6474 75.208 57.6474 74.296C57.6474 73.368 57.3514 72.648 56.7594 72.136C56.1674 71.624 55.2714 71.368 54.0714 71.368H49.1754L50.9034 69.52V79.048ZM71.7294 85.288C69.3454 85.288 67.4814 84.624 66.1374 83.296C64.7934 81.968 64.1214 80.072 64.1214 77.608V68.2H68.0094V77.464C68.0094 79.064 68.3374 80.216 68.9934 80.92C69.6494 81.624 70.5694 81.976 71.7534 81.976C72.9374 81.976 73.8574 81.624 74.5134 80.92C75.1694 80.216 75.4974 79.064 75.4974 77.464V68.2H79.3374V77.608C79.3374 80.072 78.6654 81.968 77.3214 83.296C75.9774 84.624 74.1134 85.288 71.7294 85.288ZM82.0995 85V82.48L92.4915 69.952L92.9715 71.368H82.2915V68.2H96.4275V70.72L86.0595 83.248L85.5795 81.832H96.7875V85H82.0995ZM98.2011 85V82.48L108.593 69.952L109.073 71.368H98.3931V68.2H112.529V70.72L102.161 83.248L101.681 81.832H112.889V85H98.2011ZM115.383 85V68.2H119.271V81.832H127.695V85H115.383ZM133.443 74.968H141.531V77.992H133.443V74.968ZM133.731 81.88H142.875V85H129.867V68.2H142.563V71.32H133.731V81.88Z" fill="white"/>
<path d="M10.4771 44.7064C13.5754 42.9023 17.0387 41.8156 20.6123 41.5262C24.4411 41.337 27.9546 42.2379 32.8284 44.5712C37.7023 46.9045 40.396 49.1298 42.4591 52.9586C44.5221 56.7874 45.6392 59.6072 44.5131 64.5892C43.387 69.5712 43.0446 74.5802 41.0446 78.0396C39.0446 81.4991 35.7023 83.8955 30.7474 85.1387C25.7924 86.3819 18.7474 87.1928 12.6663 83.8414C6.58526 80.4901 2.30599 75.5081 0.729414 68.6162C-0.847159 61.7243 0.450135 58.1388 1.63031 54.9045C3.39524 50.6357 6.50026 47.0564 10.4771 44.7064Z" fill="#3E3736"/>
<path d="M12.1618 45.2199C14.3128 44.0319 16.6591 43.2386 19.0897 42.8775C22.6933 42.4541 28.5221 44.0667 29.1347 44.346C29.7473 44.6253 30.2609 44.7964 30.0356 44.9676C29.8104 45.1388 27.7564 46.9316 27.0266 47.0487C26.2969 47.1658 23.7654 46.5442 21.8465 46.6253C19.9275 46.7063 18.6393 47.0757 17.7113 47.0757C16.7834 47.0757 15.4591 46.0577 14.5582 45.9766C13.6573 45.8955 11.7384 45.4451 12.1618 45.2199Z" fill="#4EAE4D"/>
<path d="M10.3871 46.6253C11.6312 46.2605 12.9664 46.3696 14.1348 46.9316C15.5943 47.7244 15.4321 48.0577 17.4231 48.0307C19.4141 48.0037 20.3871 47.6703 20.9726 47.8055C21.5582 47.9406 24.0447 49.0217 26.2429 48.5982C27.63 48.3681 28.9478 47.8293 30.0987 47.0217C30.7474 46.5982 31.1348 45.8955 31.5312 45.9496C31.9276 46.0037 35.5041 48.1208 35.4411 48.346C35.0512 48.9204 34.5209 49.3856 33.9005 49.6973C32.7643 50.4556 31.8872 51.5433 31.387 52.8145C30.9366 54.1388 30.6843 58.1117 31.2789 58.5081C31.8735 58.9045 33.387 58.337 33.9816 58.7874C34.5762 59.2379 34.7113 60.6433 35.7023 60.7604C36.6933 60.8775 37.1077 60.1388 38.0086 60.7604C38.9095 61.382 38.9095 61.8505 40.3149 61.8865C41.7203 61.9225 43.0176 61.5982 43.0987 61.8865C43.191 62.3172 43.1533 62.7655 42.9906 63.1748C42.8465 63.2649 38.0897 63.8234 36.9636 63.8865C35.8375 63.9496 36.0627 64.1928 35.4411 63.8865C34.8195 63.5802 33.8375 62.418 32.387 62.1928C30.9366 61.9676 26.5042 61.6883 25.6303 61.6883C24.7564 61.6883 24.5042 61.6883 24.4141 62.1117C24.324 62.5352 24.5042 66.7784 24.0537 68.1658C23.6033 69.5532 23.9096 71.8234 25.5402 72.4721C27.1708 73.1207 28.8645 73.4541 29.0897 74.0486C29.315 74.6432 30.1078 78.5531 30.8105 79.8775C31.5132 81.2018 32.4951 82.7153 32.1618 82.9946C30.4415 83.7307 28.6185 84.1986 26.7564 84.382C25.0272 84.5949 23.2784 84.5949 21.5492 84.382C21.5492 84.382 20.5042 78.9766 20.2249 78.4901C19.9221 77.831 19.7949 77.1048 19.8555 76.382C19.9726 76.0126 21.9636 71.9946 21.7114 70.9766C21.4591 69.9586 21.0627 68.9225 20.1348 68.6703C19.2069 68.418 17.6573 68.6703 15.1528 68.6703C13.5402 68.6931 11.9292 68.5604 10.342 68.2739C9.83753 68.1658 9.54924 68.2739 9.32401 68.0216C9.09879 67.7694 7.26996 64.418 7.52221 64.1117C7.77447 63.8054 10.342 63.0667 10.4501 62.4721C10.5582 61.8775 10.3961 60.4451 11.0447 60.391C11.6934 60.337 14.5312 60.7334 15.4321 60.2559C16.333 59.7784 16.4501 58.6793 16.4772 57.7153C16.5042 56.7514 16.1438 54.6523 15.7204 54.2559C15.297 53.8595 11.2159 52.6253 9.66635 51.8054C8.11681 50.9856 6.8105 50.346 6.98167 49.8054C7.88168 48.5187 9.04184 47.4353 10.3871 46.6253Z" fill="#85BFE9"/>
<path d="M12.1078 48.5442C12.5943 48.4811 12.6393 48.8595 12.4681 49.1929C12.297 49.5262 12.4681 50.7424 13.0087 50.7154C14.9103 50.285 16.8355 49.9662 18.7744 49.7604C21.2394 49.8787 23.671 50.3802 25.9816 51.2469C26.6573 51.6163 26.9726 53.0487 27.0267 53.4721C26.3778 55.2151 25.5474 56.8849 24.5492 58.4541C24.2969 58.5892 21.6753 57.5532 19.7924 56.6523C17.9096 55.7514 17.0897 55.328 17.0087 54.9586C16.9314 54.4323 16.7797 53.9197 16.5582 53.4361C16.387 53.355 13.8555 53.1838 12.6393 52.4541C11.4231 51.7244 10.333 50.5352 10.5582 50.0307C10.9195 49.3953 11.4579 48.8788 12.1078 48.5442Z" fill="#3E3736"/>
<path d="M15.5943 51.1297C17.771 50.8394 19.9818 50.9339 22.1258 51.409C24.9997 51.9766 25.4501 52.4541 25.369 53.1568C25.288 53.8595 24.2159 56.7604 23.8195 56.6162C22.1818 56.072 20.5834 55.4158 19.0357 54.6523C18.8375 54.364 18.7745 52.9586 17.9366 52.7063C17.0988 52.4541 15.342 51.9135 14.7564 51.6883C14.1709 51.4631 14.306 51.2379 14.4411 51.2379C14.5763 51.2379 15.5943 51.1297 15.5943 51.1297Z" fill="#4EAE4D"/>
<path d="M36.5131 48.7334C36.7023 48.6703 39.1617 49.6973 40.8464 52.9045C42.5311 56.1117 43.0716 60.0577 42.8734 60.418C42.6752 60.7784 42.0626 60.8144 41.4951 60.6432C40.9275 60.4721 38.6933 59.2378 38.2068 59.2378C37.7203 59.2378 36.9365 59.6613 36.6032 59.2378C36.2698 58.8144 35.2518 57.5532 34.2338 57.5532C33.2158 57.5532 32.9996 57.7243 32.8284 57.4991C32.6572 57.2739 32.0987 52.5171 33.1617 51.6433C34.2248 50.7694 35.1617 50.2108 35.5852 49.8415C36.0086 49.4721 36.2608 48.8235 36.5131 48.7334Z" fill="#4EAE4D"/>
<path d="M25.8194 62.9585C26.1437 62.9585 30.9726 62.5982 31.9275 63.5261C32.8825 64.454 33.6752 65.463 34.4861 65.436C35.2969 65.409 42.7653 64.7603 42.7653 65.0486C42.7653 65.3369 41.9185 71.8053 40.6212 75.0936C39.6048 77.6476 37.8754 79.8554 35.6392 81.454C34.6032 82.0486 33.5311 82.2738 33.45 82.1026C32.5052 80.4321 31.8102 78.6322 31.387 76.7603C30.7744 73.8594 30.6032 72.508 29.6482 72.2558C28.6933 72.0035 26.3239 71.445 25.8735 70.8774C25.5687 70.3661 25.3954 69.7873 25.369 69.1927C25.369 69.1927 25.6212 65.6973 25.6212 64.9405C25.6212 64.1837 25.6482 62.9585 25.8194 62.9585Z" fill="#4EAE4D"/>
<path d="M9.35107 69.454C10.7374 70.0083 12.2185 70.2868 13.7114 70.2739C16.6934 70.3279 19.6213 69.9946 19.9366 70.3549C20.252 70.7153 20.1889 71.9585 19.5402 73.1477C19.1314 73.9008 18.7732 74.6803 18.4682 75.4811C17.5785 74.6582 16.6268 73.9053 15.6213 73.2288C15.5044 73.2787 15.4091 73.3688 15.3529 73.4828C15.2967 73.5969 15.2833 73.7273 15.315 73.8504C15.4321 74.1027 18.0177 75.8504 18.1348 76.0757C18.1522 76.6028 18.1221 77.1305 18.0447 77.6522C17.1983 76.8714 16.2949 76.1548 15.342 75.5081C15.0087 75.454 14.7835 76.2738 14.8916 76.409C14.9997 76.5441 18.0718 78.6612 18.4952 79.0306C18.9135 79.7248 19.172 80.5034 19.252 81.3099C19.1709 81.3099 15.7384 78.5261 15.5402 78.4901C15.342 78.454 15.288 79.391 15.288 79.391C15.288 79.391 19.342 82.2648 19.4772 82.4901C19.693 83.0317 19.8266 83.6026 19.8736 84.1837C18.7808 83.972 17.701 83.6983 16.6393 83.3639C15.5132 82.9405 14.5222 82.7153 14.5222 82.6342C14.5222 82.5531 13.4682 79.2288 11.9907 77.7874C11.1755 77.0932 10.46 76.2898 9.86458 75.4C9.69238 74.2902 9.58709 73.1711 9.54927 72.0486C9.51323 71.2829 9.1799 69.454 9.35107 69.454Z" fill="#4EAE4D"/>
<path d="M3.12582 69.6252C3.29699 69.2919 5.43212 69.8505 6.45013 70.2469C7.46815 70.6432 7.80148 71.1477 7.82851 71.9315C7.85554 72.7153 7.71139 76.1297 8.41409 76.7513C9.53456 77.5297 10.4772 78.5368 11.1799 79.7063C11.5879 80.3092 11.8924 80.976 12.0808 81.6793C9.98989 80.4037 8.17878 78.7182 6.75644 76.7243C3.88257 73.0036 3.04474 69.7964 3.12582 69.6252Z" fill="#85BFE9"/>
<path d="M2.30599 67.6252C1.46348 64.7935 1.42605 61.7832 2.19788 58.9315C3.43211 53.8054 5.80148 51.0757 5.99967 51.1027C6.19787 51.1297 10.8645 53.8054 12.7564 54.7063C14.6483 55.6072 14.7564 55.6072 14.8915 56.0036C15.0016 57.0092 14.9438 58.026 14.7204 59.0126C14.5582 59.0937 11.1798 58.9315 10.2159 59.0126C9.25192 59.0937 8.96363 60.445 9.0357 60.9856C9.10777 61.5261 9.15282 61.7694 8.92759 61.9405C8.70237 62.1117 5.68436 62.9225 5.5222 63.7423C5.36003 64.5621 7.65733 68.5801 7.32399 68.6973C6.99066 68.8144 3.20689 68.5531 2.30599 67.6252Z" fill="#4EAE4D"/>
<path d="M3.88257 57.7154C4.11981 56.587 4.46992 55.4854 4.92761 54.4271C5.37806 53.7514 5.57626 53.6073 5.77446 53.6613C5.97265 53.7154 6.53121 53.9766 6.47716 54.1388C6.4231 54.301 5.45914 56.1658 5.20689 56.9856C4.95464 57.8055 5.20689 57.8055 4.84653 57.8865C4.48617 57.9676 3.99969 57.9136 3.88257 57.7154Z" fill="#3E3736"/>
<path d="M29.6843 49.0757C29.8285 48.9496 31.9636 48.4271 32.1078 48.6253C32.2519 48.8235 32.4141 49.0217 32.2699 49.1298C31.5195 49.5046 30.7271 49.7889 29.9096 49.9766C29.7294 49.8865 29.5042 49.2109 29.6843 49.0757Z" fill="#3E3736"/>
<path d="M28.2969 55.6883C28.432 55.8325 29.6212 57.7424 29.4771 57.9135C29.3329 58.0847 29.4771 58.337 29.1708 58.1928C28.5678 57.6355 28.0942 56.9528 27.7834 56.1928C27.8825 55.9676 28.2969 55.6883 28.2969 55.6883Z" fill="#3E3736"/>
<path d="M26.9816 56.9856C27.5664 57.5537 28.0862 58.1853 28.5311 58.8685C28.5311 59.0397 28.5311 59.2919 28.2518 59.2109C27.6068 58.7531 27.0408 58.1932 26.5762 57.5532C26.5762 57.4091 26.9816 56.9586 26.9816 56.9856Z" fill="#3E3736"/>
<path d="M38.0897 52.7334C38.9049 52.9494 39.6701 53.3228 40.342 53.8325C40.342 54.0037 40.4321 54.4541 40.2068 54.364C39.9816 54.2739 37.9186 53.4631 37.8375 53.355C37.7564 53.2469 38.0627 52.7604 38.0897 52.7334Z" fill="#3E3736"/>
<path d="M37.8915 54.8505C37.9636 54.7514 41.4951 56.8144 41.4951 57.1297C41.4951 57.4451 41.8105 57.6613 41.4411 57.6072C40.1155 57.0606 38.8352 56.4099 37.6123 55.6613C37.5042 55.4901 37.7924 54.9856 37.8915 54.8505Z" fill="#3E3736"/>
<path d="M37.5582 56.6523C39.0927 57.279 40.5548 58.0705 41.9185 59.0127C41.9726 59.2649 42.1708 59.5442 41.8104 59.5172C40.2805 58.9065 38.7937 58.1932 37.36 57.382C37.2789 57.2649 37.4411 56.7064 37.5582 56.6523Z" fill="#3E3736"/>
<path d="M38.4051 67.0397C39.3989 67.736 40.28 68.5807 41.0177 69.5442C40.9366 69.7694 41.0177 69.8775 40.7655 69.7964C39.7548 69.0682 38.8138 68.2479 37.9547 67.346C38.0087 67.2018 38.261 67.0937 38.4051 67.0397Z" fill="#3E3736"/>
<path d="M36.9906 68.7513C38.072 69.6171 39.0813 70.5691 40.0086 71.5982C40.0086 71.8234 39.8915 72.0216 39.7834 71.9946C38.7018 71.1509 37.6672 70.2487 36.6843 69.2919C36.7731 69.1045 36.8755 68.9239 36.9906 68.7513Z" fill="#3E3736"/>
<path d="M36.0897 70.5802C37.1941 71.4727 38.2053 72.4749 39.1077 73.5712C39.0447 73.7964 39.1618 73.9315 38.8825 73.9045C37.7663 73.0234 36.7043 72.0757 35.7023 71.0667C35.8135 70.891 35.9434 70.7278 36.0897 70.5802Z" fill="#3E3736"/>
<path d="M35.3871 72.0757C36.4895 72.9758 37.5169 73.964 38.4592 75.0306C38.4592 75.2559 38.3691 75.4 38.261 75.3099C37.0566 74.4475 35.9016 73.5181 34.8015 72.5261C34.8525 72.4073 34.9331 72.3035 35.0356 72.2246C35.1381 72.1457 35.2591 72.0945 35.3871 72.0757Z" fill="#3E3736"/>
<path d="M34.8285 74.7784C35.8485 75.4737 36.775 76.2973 37.5852 77.2288C37.5852 77.427 37.4411 77.5621 37.36 77.5351C36.3576 76.8428 35.3979 76.0907 34.4861 75.2829C34.4591 75.1117 34.7654 74.8054 34.8285 74.7784Z" fill="#3E3736"/>
<path d="M34.1888 76.409C34.3419 76.409 37.1167 78.8324 36.8915 79.0577C36.6663 79.2829 36.7834 79.391 36.5582 79.3099C35.5452 78.5911 34.6012 77.7799 33.7383 76.8865C33.8374 76.7514 34.0356 76.409 34.1888 76.409Z" fill="#3E3736"/>
<path d="M25.342 74.1568C25.4231 74.0307 26.5222 74.4361 26.4952 74.6973C26.4681 74.9586 26.4952 75.0036 26.351 75.0036C25.8734 74.946 25.408 74.8121 24.9727 74.6072C24.9727 74.4991 25.279 74.2469 25.342 74.1568Z" fill="#3E3736"/>
<path d="M23.5041 77.6252C23.6691 77.5538 23.8469 77.517 24.0267 77.517C24.2064 77.517 24.3842 77.5538 24.5492 77.6252C24.9726 77.8234 25.5942 78.5261 26.1528 78.6162C26.7113 78.7063 27.1438 78.3639 27.2789 78.445C27.3512 78.4852 27.4059 78.5507 27.4325 78.629C27.4592 78.7072 27.4558 78.7926 27.4231 78.8685C27.333 79.0126 27.2789 79.1477 27.0537 79.2018C26.6029 79.3347 26.1179 79.2862 25.7023 79.0666C25.1798 78.7153 24.8555 78.2739 24.2789 78.2739C23.7023 78.2739 23.7654 78.382 23.6573 78.2739C23.5492 78.1657 23.2789 77.8144 23.5041 77.6252Z" fill="#3E3736"/>
<path d="M17.0717 71.2018C17.2969 71.346 18.9276 72.7784 18.8735 73.0036C18.8195 73.2289 18.7023 73.4541 18.5312 73.4C17.8121 72.9467 17.1601 72.3947 16.5942 71.7604C16.5852 71.5442 17.0717 71.2018 17.0717 71.2018Z" fill="#3E3736"/>
<path d="M15.4592 62.4451C15.5673 62.4451 17.9907 66.2198 17.7925 66.418C17.5943 66.6162 17.4862 66.8144 17.3691 66.6973C16.4414 65.4446 15.5871 64.1391 14.8105 62.7874C14.9849 62.6073 15.2121 62.4874 15.4592 62.4451Z" fill="#3E3736"/>
<path d="M16.387 62.0577C16.387 61.9496 16.9186 61.7153 17.0897 61.8865C17.6035 62.6476 18.0183 63.471 18.324 64.337C18.2429 64.4991 18.324 64.7604 18.0987 64.5892C17.448 63.8025 16.8748 62.9547 16.387 62.0577Z" fill="#3E3736"/>
<path d="M21.342 61.7964C21.4141 61.6973 22.2429 60.8955 22.4952 60.8955C22.7474 60.8955 23.3961 60.8955 23.315 61.0937C23.2339 61.2919 22.0447 62.8144 21.8195 62.6703C21.5652 62.4421 21.3967 62.1337 21.342 61.7964Z" fill="#3E3736"/>
<path d="M61.3397 42.273L61.3061 54.1194L44.2371 44.7977L54.2247 26.5095L71.2937 35.8312L61.3397 42.273Z" fill="#F05A1F"/>
<path d="M42.423 12.8139L46.0786 14.8089L20.7923 61.1417L17.1366 59.1467L42.423 12.8139ZM49.9078 12.1497C51.0061 10.1267 50.2629 7.59512 48.2477 6.49456C46.2302 5.38621 43.6908 6.13166 42.5925 8.15468C41.492 10.1699 42.2351 12.7015 44.2527 13.8098C46.278 14.9159 48.8095 14.1727 49.9078 12.1497Z" fill="#CCCCCC"/>
<path d="M46.2941 14.4297L64.5834 24.418L54.5953 42.7074L36.3058 32.7191L46.2941 14.4297Z" fill="#F05A1F"/>
<path d="M42.9858 44.0228C42.8042 44.3553 42.7701 44.7291 42.8707 45.0718C42.9691 45.4068 43.2021 45.7106 43.5346 45.8922L60.5212 55.0774C60.9444 55.3085 61.4662 55.2992 61.8915 55.0474C62.309 54.798 62.5745 54.3478 62.5766 53.8649L62.6354 42.8825L71.9281 36.8972C72.341 36.6321 72.5785 36.1732 72.5627 35.6871C72.5392 35.2033 72.2751 34.7647 71.8441 34.5359L63.1341 29.825L65.7296 25.1204C66.1006 24.453 65.8559 23.6196 65.1831 23.2587L49.5444 14.8031C50.1778 14.3379 50.7233 13.7463 51.125 13.0107C51.8371 11.7187 52.0015 10.2321 51.5876 8.82224C51.1737 7.41234 50.2319 6.25049 48.9344 5.54841C47.6368 4.84634 46.1448 4.6921 44.7193 5.11056C43.3016 5.52673 42.1219 6.4653 41.4175 7.75504C40.7054 9.04708 40.5411 10.5336 40.9549 11.9435C41.0121 12.1383 41.0848 12.3284 41.1553 12.5108L15.9306 58.2683C15.7545 58.5907 15.7127 58.9668 15.8156 59.3173C15.9185 59.6679 16.157 59.9617 16.4794 60.1378L20.1201 62.1064C20.793 62.4673 21.6342 62.2203 21.9974 61.5553L36.8691 34.5994L45.579 39.3103L42.9858 44.0228ZM46.8252 42.7772L48.0051 40.6287L50.5498 42.0054L46.8252 42.7772ZM68.4669 35.8572L60.4973 40.9888C60.1055 41.2392 59.8611 41.6748 59.8622 42.1398L59.8111 51.5632L48.2317 45.2917L54.7957 43.9317L54.8502 43.9157C54.8658 43.9111 54.8914 43.9121 54.907 43.9075C54.9382 43.8983 54.9593 43.8837 54.9826 43.8768C55.0294 43.8631 55.066 43.8439 55.1105 43.8224C55.1471 43.8032 55.1838 43.7839 55.2282 43.7624C55.2704 43.7331 55.3071 43.7139 55.3492 43.6846C55.3836 43.6576 55.418 43.6306 55.4446 43.6059C55.4767 43.571 55.511 43.544 55.5431 43.5092C55.5752 43.4744 55.5995 43.4419 55.6238 43.4094C55.6559 43.3746 55.6779 43.3343 55.6999 43.294C55.7109 43.2738 55.7242 43.2615 55.7297 43.2514L61.7901 32.2501L68.4669 35.8572ZM43.8537 9.07893C44.2136 8.43178 44.7957 7.96478 45.5045 7.75669C46.2134 7.5486 46.9633 7.62458 47.6082 7.97676C48.2531 8.32894 48.7278 8.90873 48.9336 9.60978C49.1394 10.3108 49.0612 11.053 48.7012 11.7001C47.9671 13.0325 46.2767 13.5287 44.9467 12.8023C43.6492 12.1002 43.1415 10.371 43.8537 9.07893ZM19.0427 58.3785L43.0059 14.895L43.6081 15.2174L44.2104 15.5397L35.1056 32.0797L20.2495 59.031L19.0427 58.3785ZM46.8557 16.4807L62.6276 25.0157L53.9718 40.7216L38.1998 32.1867L46.8557 16.4807Z" fill="#3E3736"/>
<path d="M53.1764 32.8243L52.1817 29.4359L55.6013 28.432C56.3335 28.2171 56.7595 27.449 56.5468 26.7246C56.3342 26.0002 55.5684 25.582 54.8284 25.7992L51.4088 26.803L50.4141 23.4146C50.2014 22.6902 49.4357 22.272 48.6957 22.4892C47.9634 22.7042 47.5374 23.4722 47.7501 24.1967L48.7448 27.5851L45.3252 28.5889C44.593 28.8039 44.167 29.572 44.3797 30.2964C44.5923 31.0208 45.3581 31.439 46.0981 31.2218L49.5177 30.2179L50.5124 33.6064C50.7251 34.3308 51.4908 34.749 52.2308 34.5318C52.9731 34.3223 53.3913 33.5565 53.1764 32.8243Z" fill="#3E3736"/>
</svg>
