<svg width="85" height="70" viewBox="0 0 85 70" fill="none" xmlns="http://www.w3.org/2000/svg">
<path d="M31.9519 34.2748C34.5992 32.7223 37.5583 31.787 40.6116 31.538C43.883 31.3751 46.8851 32.1505 51.0494 34.1585C55.2138 36.1666 57.5153 38.0817 59.278 41.3768C61.0408 44.6719 61.9953 47.0986 61.0331 51.3862C60.0709 55.6737 59.7784 59.9845 58.0695 62.9617C56.3607 65.9389 53.5049 68.0013 49.2713 69.0712C45.0377 70.1412 39.0182 70.8389 33.8224 67.9548C28.6266 65.0706 24.9703 60.783 23.6232 54.8518C22.2762 48.9206 23.3846 45.8349 24.393 43.0515C25.901 39.3776 28.554 36.2973 31.9519 34.2748Z" fill="#CBCBCB"/>
<path d="M33.3913 34.7168C35.2292 33.6944 37.2339 33.0116 39.3107 32.7009C42.3897 32.3365 47.37 33.7244 47.8934 33.9647C48.4168 34.2051 48.8556 34.3524 48.6632 34.4997C48.4707 34.647 46.7157 36.1899 46.0922 36.2907C45.4687 36.3915 43.3057 35.8565 41.6661 35.9263C40.0266 35.996 38.9258 36.3139 38.133 36.3139C37.3401 36.3139 36.2086 35.4378 35.4389 35.368C34.6691 35.2983 33.0295 34.9106 33.3913 34.7168Z" fill="white"/>
<path d="M31.875 35.9263C32.938 35.6123 34.0788 35.7063 35.0771 36.1899C36.3241 36.8722 36.1856 37.159 37.8867 37.1358C39.5879 37.1125 40.4192 36.8256 40.9195 36.9419C41.4199 37.0582 43.5444 37.9886 45.4226 37.6242C46.6078 37.4262 47.7337 36.9625 48.7171 36.2674C49.2713 35.903 49.6023 35.2983 49.941 35.3448C50.2797 35.3913 53.3356 37.2133 53.2817 37.4071C52.9486 37.9015 52.4955 38.3018 51.9654 38.5701C50.9946 39.2226 50.2452 40.1587 49.8178 41.2527C49.433 42.3924 49.2174 45.8116 49.7255 46.1527C50.2335 46.4939 51.5267 46.0054 52.0347 46.3931C52.5428 46.7808 52.6582 47.9903 53.5049 48.091C54.3517 48.1918 54.7058 47.5561 55.4755 48.091C56.2453 48.626 56.2453 49.0292 57.4461 49.0602C58.6469 49.0912 59.7553 48.8121 59.8246 49.0602C59.9034 49.4308 59.8713 49.8167 59.7322 50.1689C59.6091 50.2464 55.5448 50.7271 54.5826 50.7814C53.6204 50.8357 53.8128 51.045 53.2817 50.7814C52.7506 50.5178 51.9116 49.5176 50.6723 49.3238C49.433 49.13 45.6458 48.8896 44.8991 48.8896C44.1525 48.8896 43.937 48.8896 43.86 49.254C43.783 49.6184 43.937 53.2702 43.5521 54.4642C43.1672 55.6582 43.4289 57.612 44.8222 58.1702C46.2154 58.7284 47.6625 59.0153 47.855 59.527C48.0474 60.0387 48.7248 63.4036 49.3252 64.5433C49.9256 65.6831 50.7646 66.9856 50.4798 67.226C49.01 67.8595 47.4524 68.2621 45.8613 68.4199C44.3839 68.6032 42.8896 68.6032 41.4122 68.4199C41.4122 68.4199 40.5193 63.768 40.2806 63.3494C40.0219 62.7821 39.9132 62.1571 39.965 61.5351C40.0651 61.2172 41.7663 57.7593 41.5507 56.8832C41.3352 56.0071 40.9965 55.1154 40.2037 54.8984C39.4108 54.6813 38.0869 54.8984 35.947 54.8984C34.5691 54.918 33.1926 54.8038 31.8365 54.5572C31.4054 54.4642 31.1591 54.5572 30.9667 54.3401C30.7742 54.123 29.2116 51.2388 29.4272 50.9752C29.6427 50.7116 31.8365 50.0759 31.9289 49.5642C32.0212 49.0524 31.8827 47.8197 32.4369 47.7732C32.9911 47.7266 35.4158 48.0678 36.1856 47.6569C36.9553 47.2459 37.0554 46.3001 37.0785 45.4705C37.1016 44.6409 36.7937 42.8344 36.4319 42.4932C36.0701 42.1521 32.5831 41.0899 31.2592 40.3844C29.9352 39.6788 28.8191 39.1283 28.9653 38.6632C29.7343 37.5558 30.7256 36.6234 31.875 35.9263Z" fill="white"/>
<path d="M33.3451 37.5777C33.7608 37.5234 33.7993 37.8491 33.653 38.136C33.5068 38.4228 33.653 39.4695 34.1149 39.4462C35.7397 39.0759 37.3847 38.8015 39.0413 38.6244C41.1475 38.7262 43.225 39.1578 45.1993 39.9037C45.7766 40.2216 46.046 41.4543 46.0922 41.8187C45.5378 43.3187 44.8283 44.7558 43.9754 46.1062C43.7599 46.2225 41.5199 45.3309 39.9111 44.5556C38.3023 43.7803 37.6019 43.4159 37.5326 43.098C37.4666 42.6451 37.337 42.2039 37.1477 41.7877C37.0015 41.7179 34.8385 41.5706 33.7993 40.9426C32.7601 40.3146 31.8287 39.2912 32.0212 38.857C32.3299 38.3102 32.7899 37.8657 33.3451 37.5777Z" fill="#CBCBCB"/>
<path d="M36.3241 39.8029C38.1839 39.553 40.0729 39.6343 41.9048 40.0432C44.3603 40.5317 44.7452 40.9426 44.6759 41.5473C44.6066 42.1521 43.6906 44.6486 43.3519 44.5245C41.9526 44.0562 40.5869 43.4915 39.2645 42.8344C39.0952 42.5862 39.0413 41.3768 38.3255 41.1597C37.6096 40.9426 36.1086 40.4774 35.6082 40.2836C35.1079 40.0897 35.2234 39.8959 35.3388 39.8959C35.4543 39.8959 36.3241 39.8029 36.3241 39.8029Z" fill="white"/>
<path d="M54.1977 37.7405C54.3593 37.6862 56.4607 38.5701 57.9002 41.3302C59.3396 44.0904 59.8015 47.4863 59.6321 47.7964C59.4628 48.1065 58.9393 48.1376 58.4544 47.9902C57.9695 47.8429 56.0605 46.7807 55.6448 46.7807C55.2291 46.7807 54.5595 47.1451 54.2747 46.7807C53.9899 46.4163 53.12 45.3309 52.2502 45.3309C51.3804 45.3309 51.1957 45.4782 51.0494 45.2844C50.9032 45.0905 50.4259 40.9969 51.3342 40.2448C52.2425 39.4927 53.0431 39.012 53.4048 38.6942C53.7666 38.3763 53.9822 37.818 54.1977 37.7405Z" fill="white"/>
<path d="M45.0607 49.9828C45.3378 49.9828 49.4637 49.6727 50.2796 50.4712C51.0956 51.2698 51.773 52.1382 52.4657 52.1149C53.1585 52.0917 59.5397 51.5334 59.5397 51.7815C59.5397 52.0296 58.8162 57.5964 57.7077 60.4263C56.8393 62.6243 55.3617 64.5244 53.451 65.9001C52.5658 66.4118 51.6498 66.6056 51.5805 66.4583C50.7733 65.0207 50.1794 63.4717 49.8178 61.8607C49.2944 59.3642 49.1481 58.2012 48.3322 57.9841C47.5162 57.767 45.4918 57.2863 45.1069 56.7978C44.8466 56.3578 44.6985 55.8597 44.6759 55.348C44.6759 55.348 44.8914 52.3398 44.8914 51.6885C44.8914 51.0372 44.9145 49.9828 45.0607 49.9828Z" fill="white"/>
<path d="M30.9898 55.5729C32.1743 56.0499 33.4398 56.2895 34.7154 56.2784C37.2632 56.3249 39.7649 56.0381 40.0343 56.3482C40.3037 56.6583 40.2499 57.7283 39.6956 58.7517C39.3463 59.3998 39.0403 60.0706 38.7796 60.7598C38.0195 60.0516 37.2063 59.4036 36.3472 58.8215C36.2473 58.8644 36.1659 58.9419 36.1179 59.0401C36.0699 59.1382 36.0584 59.2505 36.0855 59.3564C36.1856 59.5735 38.3948 61.0777 38.4948 61.2715C38.5097 61.7252 38.4839 62.1793 38.4179 62.6283C37.6946 61.9563 36.9227 61.3396 36.1086 60.783C35.8238 60.7365 35.6314 61.4421 35.7237 61.5583C35.8161 61.6746 38.4409 63.4966 38.8027 63.8145C39.1601 64.4119 39.381 65.082 39.4493 65.7761C39.38 65.7761 36.4473 63.3804 36.2779 63.3493C36.1086 63.3183 36.0624 64.1247 36.0624 64.1247C36.0624 64.1247 39.5263 66.5979 39.6418 66.7918C39.8262 67.2579 39.9403 67.7492 39.9804 68.2494C39.0468 68.0672 38.1241 67.8316 37.217 67.5438C36.2549 67.1794 35.4081 66.9856 35.4081 66.9158C35.4081 66.846 34.5075 63.9851 33.2451 62.7446C32.5486 62.1472 31.9373 61.4558 31.4285 60.69C31.2814 59.7349 31.1914 58.7718 31.1591 57.8058C31.1283 57.1468 30.8435 55.5729 30.9898 55.5729Z" fill="white"/>
<path d="M25.6708 55.7202C25.817 55.4333 27.6413 55.914 28.5111 56.2552C29.381 56.5963 29.6658 57.0305 29.6889 57.705C29.7119 58.3796 29.5888 61.318 30.1892 61.853C31.1465 62.5229 31.952 63.3896 32.5523 64.396C32.9009 64.9149 33.1611 65.4888 33.3221 66.094C31.5356 64.9962 29.9881 63.5457 28.7729 61.8297C26.3173 58.6277 25.6015 55.8675 25.6708 55.7202Z" fill="white"/>
<path d="M24.9703 53.999C24.2504 51.562 24.2185 48.9713 24.8779 46.5171C25.9325 42.1055 27.9569 39.7563 28.1263 39.7796C28.2956 39.8028 32.2829 42.1055 33.8994 42.8809C35.5159 43.6562 35.6082 43.6562 35.7237 43.9973C35.8178 44.8627 35.7683 45.7378 35.5774 46.5869C35.4389 46.6567 32.5523 46.5171 31.7287 46.5869C30.9051 46.6567 30.6587 47.8197 30.7203 48.2848C30.7819 48.75 30.8204 48.9594 30.628 49.1067C30.4355 49.254 27.8569 49.9518 27.7183 50.6573C27.5797 51.3629 29.5426 54.8208 29.2578 54.9216C28.973 55.0224 25.74 54.7975 24.9703 53.999Z" fill="white"/>
<path d="M26.3173 45.4705C26.52 44.4994 26.8192 43.5513 27.2103 42.6406C27.5951 42.0591 27.7645 41.935 27.9338 41.9815C28.1032 42.0281 28.5804 42.2529 28.5342 42.3925C28.488 42.532 27.6644 44.1369 27.4489 44.8425C27.2333 45.548 27.4489 45.548 27.141 45.6178C26.8331 45.6876 26.4174 45.6411 26.3173 45.4705Z" fill="#CBCBCB"/>
<path d="M48.363 38.0351C48.4862 37.9266 50.3105 37.4769 50.4336 37.6475C50.5568 37.818 50.6953 37.9886 50.5722 38.0817C49.931 38.4042 49.254 38.6489 48.5554 38.8105C48.4015 38.7329 48.209 38.1514 48.363 38.0351Z" fill="#CBCBCB"/>
<path d="M47.1776 43.726C47.293 43.85 48.3091 45.4937 48.1859 45.641C48.0628 45.7883 48.1859 46.0054 47.9242 45.8814C47.409 45.4017 47.0044 44.8142 46.7388 44.1602C46.8235 43.9663 47.1776 43.726 47.1776 43.726Z" fill="#CBCBCB"/>
<path d="M46.0537 44.8425C46.5534 45.3314 46.9975 45.8749 47.3777 46.4629C47.3777 46.6102 47.3777 46.8273 47.1391 46.7575C46.588 46.3636 46.1044 45.8817 45.7073 45.3309C45.7073 45.2069 46.0537 44.8192 46.0537 44.8425Z" fill="#CBCBCB"/>
<path d="M55.5448 41.183C56.2413 41.3689 56.895 41.6902 57.4691 42.1288C57.4691 42.2762 57.5461 42.6638 57.3537 42.5863C57.1612 42.5087 55.3985 41.811 55.3292 41.7179C55.26 41.6249 55.5217 41.2062 55.5448 41.183Z" fill="#CBCBCB"/>
<path d="M55.3754 43.0049C55.437 42.9196 58.4544 44.6951 58.4544 44.9665C58.4544 45.2378 58.7239 45.4239 58.4083 45.3774C57.2756 44.907 56.1817 44.347 55.1368 43.7027C55.0444 43.5554 55.2908 43.1212 55.3754 43.0049Z" fill="#CBCBCB"/>
<path d="M55.0906 44.5556C56.4018 45.095 57.651 45.7761 58.8162 46.5869C58.8624 46.804 59.0317 47.0444 58.7238 47.0211C57.4167 46.4956 56.1462 45.8817 54.9213 45.1836C54.852 45.0828 54.9905 44.6021 55.0906 44.5556Z" fill="#CBCBCB"/>
<path d="M55.8142 53.495C56.6634 54.0943 57.4162 54.8212 58.0465 55.6504C57.9772 55.8443 58.0465 55.9373 57.831 55.8675C56.9674 55.2408 56.1634 54.5349 55.4293 53.7586C55.4755 53.6346 55.691 53.5416 55.8142 53.495Z" fill="#CBCBCB"/>
<path d="M54.6056 54.9681C55.5296 55.7132 56.392 56.5325 57.1843 57.4181C57.1843 57.612 57.0842 57.7825 56.9919 57.7593C56.0677 57.0332 55.1838 56.2567 54.3439 55.4333C54.4199 55.2721 54.5073 55.1166 54.6056 54.9681Z" fill="#CBCBCB"/>
<path d="M53.8359 56.542C54.7795 57.3102 55.6435 58.1726 56.4146 59.1161C56.3607 59.3099 56.4607 59.4262 56.2221 59.4029C55.2684 58.6447 54.361 57.8291 53.5049 56.9607C53.5999 56.8095 53.7109 56.6691 53.8359 56.542Z" fill="#CBCBCB"/>
<path d="M53.2356 57.8291C54.1775 58.6037 55.0553 59.4542 55.8604 60.3721C55.8604 60.5659 55.7834 60.69 55.6911 60.6125C54.662 59.8702 53.6752 59.0704 52.7352 58.2167C52.7788 58.1144 52.8476 58.0251 52.9352 57.9572C53.0228 57.8894 53.1262 57.8452 53.2356 57.8291Z" fill="#CBCBCB"/>
<path d="M52.7583 60.155C53.6298 60.7535 54.4214 61.4622 55.1137 62.2639C55.1137 62.4344 54.9905 62.5507 54.9213 62.5275C54.0648 61.9317 53.2448 61.2844 52.4658 60.5892C52.4427 60.4419 52.7044 60.1783 52.7583 60.155Z" fill="#CBCBCB"/>
<path d="M52.2117 61.5584C52.3426 61.5584 54.7134 63.644 54.521 63.8378C54.3285 64.0316 54.4286 64.1247 54.2362 64.0549C53.3707 63.4363 52.5641 62.7381 51.8268 61.9693C51.9115 61.853 52.0809 61.5584 52.2117 61.5584Z" fill="#CBCBCB"/>
<path d="M44.6528 59.6201C44.7221 59.5115 45.6612 59.8604 45.6381 60.0853C45.615 60.3101 45.6381 60.3489 45.5149 60.3489C45.1068 60.2992 44.7092 60.1841 44.3372 60.0077C44.3372 59.9147 44.5989 59.6976 44.6528 59.6201Z" fill="#CBCBCB"/>
<path d="M43.0825 62.605C43.2234 62.5436 43.3754 62.5119 43.5289 62.5119C43.6825 62.5119 43.8345 62.5436 43.9754 62.605C44.3372 62.7756 44.8683 63.3803 45.3455 63.4579C45.8228 63.5354 46.1923 63.2408 46.3077 63.3106C46.3695 63.3451 46.4162 63.4015 46.439 63.4689C46.4618 63.5362 46.4589 63.6097 46.4309 63.675C46.3539 63.799 46.3077 63.9153 46.1153 63.9618C45.7301 64.0762 45.3158 64.0345 44.9607 63.8455C44.5142 63.5432 44.2371 63.1633 43.7445 63.1633C43.2518 63.1633 43.3057 63.2563 43.2133 63.1633C43.121 63.0702 42.89 62.7678 43.0825 62.605Z" fill="#CBCBCB"/>
<path d="M37.5865 57.077C37.7789 57.2011 39.1722 58.4338 39.126 58.6277C39.0798 58.8215 38.9797 59.0153 38.8335 58.9688C38.2191 58.5786 37.662 58.1036 37.1785 57.5577C37.1708 57.3717 37.5865 57.077 37.5865 57.077Z" fill="#CBCBCB"/>
<path d="M36.2087 49.5409C36.301 49.5409 38.3717 52.7895 38.2023 52.9601C38.033 53.1306 37.9406 53.3012 37.8405 53.2004C37.0479 52.1223 36.318 50.9988 35.6545 49.8355C35.8034 49.6805 35.9976 49.5773 36.2087 49.5409Z" fill="#CBCBCB"/>
<path d="M37.0015 49.2075C37.0015 49.1145 37.4556 48.9129 37.6019 49.0602C38.0409 49.7152 38.3953 50.4238 38.6564 51.1691C38.5872 51.3086 38.6564 51.5335 38.464 51.3862C37.908 50.7091 37.4182 49.9795 37.0015 49.2075Z" fill="#CBCBCB"/>
<path d="M41.2351 48.9826C41.2967 48.8974 42.0049 48.2073 42.2204 48.2073C42.436 48.2073 42.9902 48.2073 42.9209 48.3779C42.8516 48.5485 41.8355 49.8588 41.6431 49.7347C41.4258 49.5383 41.2818 49.2729 41.2351 48.9826Z" fill="#CBCBCB"/>
<path d="M75.4101 32.1807L75.3814 42.3758L60.7973 34.3534L69.3309 18.6145L83.9151 26.6369L75.4101 32.1807Z" fill="white"/>
<path d="M59.2472 6.82794L62.3707 8.5449L40.7655 48.4192L37.642 46.7023L59.2472 6.82794ZM65.6425 6.25636C66.5809 4.51534 65.9459 2.33664 64.224 1.38949C62.5002 0.435636 60.3305 1.07718 59.3921 2.8182C58.4518 4.55252 59.0867 6.73122 60.8106 7.68507C62.541 8.63696 64.7041 7.99739 65.6425 6.25636Z" fill="white"/>
<path d="M62.5548 8.21853L78.1816 16.8145L69.6476 32.5545L54.0205 23.9585L62.5548 8.21853Z" fill="white"/>
<path d="M59.7281 33.6865C59.573 33.9727 59.5438 34.2944 59.6298 34.5894C59.7138 34.8776 59.9129 35.1391 60.197 35.2954L74.7108 43.2003C75.0724 43.3992 75.5182 43.3911 75.8816 43.1745C76.2383 42.9598 76.4652 42.5723 76.4669 42.1567L76.5172 32.7052L84.4571 27.5542C84.8099 27.3261 85.0129 26.9311 84.9994 26.5128C84.9792 26.0964 84.7536 25.719 84.3853 25.5221L76.9433 21.4678L79.161 17.419C79.4779 16.8447 79.2689 16.1274 78.694 15.8168L65.332 8.53985C65.8731 8.13955 66.3392 7.63039 66.6824 6.99736C67.2909 5.88543 67.4313 4.60608 67.0777 3.39271C66.724 2.17934 65.9194 1.17944 64.8107 0.575232C63.7021 -0.0289772 62.4272 -0.16172 61.2092 0.19841C59.9979 0.556571 58.99 1.36431 58.3881 2.47428C57.7797 3.58621 57.6393 4.86556 57.9929 6.07892C58.0417 6.24651 58.1039 6.41017 58.1641 6.56712L36.6115 45.9463C36.4611 46.2238 36.4253 46.5475 36.5132 46.8492C36.6011 47.1508 36.8049 47.4037 37.0804 47.5552L40.1911 49.2495C40.766 49.56 41.4848 49.3475 41.7951 48.7752L54.5018 25.5767L61.9438 29.631L59.7281 33.6865ZM63.0086 32.6146L64.0167 30.7656L66.1909 31.9503L63.0086 32.6146ZM81.4998 26.6592L74.6904 31.0755C74.3556 31.291 74.1467 31.6659 74.1477 32.066L74.104 40.1759L64.2104 34.7786L69.8188 33.6082L69.8653 33.5944C69.8787 33.5905 69.9006 33.5913 69.9139 33.5873C69.9405 33.5795 69.9585 33.5669 69.9785 33.5609C70.0184 33.5491 70.0497 33.5326 70.0877 33.5141C70.1191 33.4975 70.1504 33.481 70.1884 33.4625C70.2244 33.4373 70.2557 33.4207 70.2917 33.3955C70.3211 33.3723 70.3505 33.349 70.3732 33.3277C70.4006 33.2978 70.43 33.2745 70.4574 33.2446C70.4848 33.2146 70.5056 33.1867 70.5263 33.1587C70.5537 33.1287 70.5725 33.094 70.5914 33.0594C70.6008 33.042 70.6121 33.0314 70.6168 33.0227L75.795 23.5549L81.4998 26.6592ZM60.4696 3.61363C60.7772 3.05668 61.2745 2.65477 61.8802 2.47569C62.4858 2.29661 63.1266 2.362 63.6776 2.66509C64.2286 2.96818 64.6343 3.46714 64.8101 4.07048C64.9859 4.67381 64.9191 5.3125 64.6115 5.86945C63.9842 7.01607 62.54 7.4431 61.4035 6.81798C60.2949 6.21377 59.8612 4.72556 60.4696 3.61363ZM39.2705 46.0412L59.7453 8.61896L60.7745 9.17384L40.3017 46.6027L39.2705 46.0412ZM63.0346 9.98367L76.5106 17.3289L69.1148 30.8455L55.6389 23.5003L63.0346 9.98367Z" fill="#CBCBCB"/>
<path d="M68.4352 24.0491L67.5853 21.133L70.5071 20.2691C71.1327 20.0841 71.4967 19.4231 71.315 18.7996C71.1333 18.1762 70.479 17.8163 69.8467 18.0032L66.9249 18.8671L66.0751 15.951C65.8934 15.3276 65.239 14.9677 64.6068 15.1546C63.9812 15.3396 63.6172 16.0006 63.7989 16.6241L64.6488 19.5402L61.727 20.4041C61.1014 20.5891 60.7374 21.2501 60.9191 21.8735C61.1008 22.4969 61.7551 22.8569 62.3874 22.6699L65.3091 21.806L66.159 24.7221C66.3407 25.3455 66.995 25.7055 67.6273 25.5185C68.2615 25.3383 68.6189 24.6792 68.4352 24.0491Z" fill="#CBCBCB"/>
</svg>
