<svg width="45" height="45" viewBox="0 0 45 45" fill="none" xmlns="http://www.w3.org/2000/svg">
    <g clip-path="url(#clip0_402_8)">
        <path d="M31.4421 27.476L35.2951 19.921L37.4041 16.264L25.1881 9.20403L18.1041 21.487L25.8311 25.953L31.4421 27.476ZM23.7611 27.271L17.0151 23.374L4.84508 44.454C4.54808 44.975 3.88308 45.154 3.36208 44.856L0.542075 43.227C0.292075 43.082 0.111075 42.844 0.0370754 42.565C-0.0379246 42.285 0.0020754 41.988 0.146075 41.736L20.7901 5.95103C20.7381 5.80503 20.6841 5.65303 20.6431 5.49803C20.3451 4.37303 20.5011 3.19803 21.0841 2.18703C21.6611 1.17903 22.6041 0.457027 23.7241 0.154027C24.8501 -0.150973 26.0181 2.68817e-05 27.0231 0.580027C28.0281 1.16103 28.7451 2.09903 29.0441 3.22403C29.3421 4.34903 29.1851 5.52403 28.6031 6.53503C28.2741 7.11003 27.8351 7.56903 27.3291 7.92503L39.4421 14.92C39.9631 15.219 40.1391 15.884 39.8361 16.405L37.7121 20.085L44.4581 23.982C44.7911 24.171 44.9911 24.523 45.0001 24.907C45.0031 25.293 44.8081 25.652 44.4801 25.854L37.0771 30.422L36.8261 39.124C36.8161 39.506 36.5991 39.858 36.2671 40.048C35.9281 40.239 35.5191 40.237 35.1911 40.046L22.0351 32.448C21.7771 32.298 21.6001 32.053 21.5291 31.785C21.4571 31.512 21.4901 31.216 21.6391 30.956L23.7611 27.271ZM23.7591 6.25303C24.7891 6.85403 26.1241 6.49303 26.7251 5.45103C27.0201 4.94503 27.0951 4.35803 26.9471 3.79903C26.7981 3.23903 26.4361 2.77103 25.9371 2.48003C25.4381 2.18803 24.8511 2.11403 24.2911 2.26603C23.7311 2.41703 23.2651 2.77603 22.9711 3.28203C22.3881 4.29303 22.7541 5.67303 23.7591 6.25303ZM3.52108 42.421L23.1301 8.40903L22.1971 7.87503L2.58608 41.881L3.52108 42.421Z" fill="#EEF0F2"/>
        <path d="M24.7859 7.56799L38.9489 15.827L30.7719 30.132L16.6079 21.873L24.7859 7.56799ZM24.7539 15.148L25.8969 17.977L23.0419 19.131C22.5299 19.338 22.2829 19.92 22.4899 20.433L22.8639 21.36C23.0709 21.872 23.6529 22.12 24.1659 21.912L27.0209 20.759L28.1449 23.54C28.3519 24.052 28.9349 24.3 29.4469 24.093L30.3739 23.718C30.8859 23.512 31.1329 22.928 30.9259 22.417L29.8029 19.635L32.5589 18.521C33.0709 18.315 33.3179 17.731 33.1119 17.22L32.7369 16.292C32.5299 15.78 31.9469 15.533 31.4349 15.74L28.6789 16.854L27.5349 14.024C27.3289 13.512 26.7449 13.264 26.2339 13.471L25.3059 13.846C24.7949 14.053 24.5469 14.636 24.7539 15.148Z" fill="#EEF0F2"/>
    </g>
    <defs>
    <clipPath id="clip0_402_8">
    <rect width="45" height="45" fill="white"/>
    </clipPath>
    </defs>
</svg>
