<svg width="212" height="1027" viewBox="0 0 212 1027" fill="none" xmlns="http://www.w3.org/2000/svg">
<path d="M107.15 598.5C101.837 598.507 96.7428 601.117 92.9858 605.757C89.2288 610.397 87.1154 616.688 87.1094 623.25C87.1094 644.428 105.328 660.423 106.105 661.092C106.411 661.357 106.776 661.499 107.15 661.499C107.524 661.499 107.889 661.357 108.195 661.092C108.972 660.423 127.191 644.428 127.191 623.25C127.185 616.688 125.071 610.397 121.314 605.757C117.557 601.117 112.463 598.507 107.15 598.5ZM107.15 614.25C108.591 614.25 110 614.778 111.199 615.767C112.397 616.756 113.331 618.161 113.883 619.806C114.434 621.45 114.579 623.26 114.297 625.006C114.016 626.752 113.322 628.355 112.303 629.614C111.284 630.873 109.985 631.73 108.572 632.077C107.158 632.424 105.693 632.246 104.361 631.565C103.03 630.884 101.891 629.73 101.091 628.25C100.29 626.77 99.8625 625.03 99.8625 623.25C99.8625 620.863 100.63 618.574 101.997 616.886C103.364 615.198 105.217 614.25 107.15 614.25Z" fill="#E6E2E8"/>
<path d="M211.189 1201.5C179.88 1188 1.63255 875.1 2.28033 771.5C3.09005 642 184.873 681 180.824 514.5C176.776 348 143.509 193.333 132.646 166.5C80.8234 38.5 115.237 22.5 160.986 31.5C180.716 35.3814 196.884 2 211.189 2" stroke="#E6E2E8" stroke-width="3" stroke-linejoin="round" stroke-dasharray="15 10"/>
</svg>
