<svg width="181" height="43" viewBox="0 0 181 43" fill="none" xmlns="http://www.w3.org/2000/svg">
<rect x="3.21826" y="41" width="4" height="174.385" transform="rotate(-90 3.21826 41)" fill="#79AEA3"/>
<rect width="3.47403" height="3.47403" transform="matrix(-0.817913 -0.575341 0.817913 -0.575341 3.21643 41)" fill="#79AEA3"/>
<rect width="3.47403" height="3.47403" transform="matrix(-0.817913 -0.575341 0.817913 -0.575341 177.601 41)" fill="#79AEA3"/>
<path d="M96.9623 24.4552C96.946 24.6474 97.0029 24.829 97.1136 24.9686C97.2216 25.105 97.3834 25.1996 97.5656 25.2167L106.855 26.0521C107.087 26.074 107.317 25.9635 107.456 25.7594C107.593 25.558 107.624 25.2937 107.532 25.0677L105.441 19.9262L108.401 15.2406C108.532 15.0328 108.549 14.7701 108.448 14.5463C108.345 14.3251 108.143 14.174 107.908 14.1548L103.145 13.7259L103.387 11.0006C103.422 10.6135 103.153 10.2739 102.786 10.2422L94.2332 9.4735C94.424 9.12742 94.5514 8.74014 94.5874 8.31488C94.6536 7.56657 94.4398 6.83881 93.9848 6.26446C93.5299 5.69012 92.889 5.33899 92.1793 5.27497C91.4696 5.21095 90.7794 5.44237 90.229 5.92774C89.6817 6.41046 89.3404 7.08878 89.2772 7.83444C89.211 8.58276 89.4248 9.31051 89.8798 9.88486C89.9426 9.96419 90.0115 10.0382 90.0778 10.1091L87.7318 36.6115C87.716 36.7979 87.7699 36.9821 87.8831 37.1249C87.9962 37.2677 88.1584 37.3564 88.3351 37.3731L90.3262 37.5521C90.6936 37.5839 91.0184 37.2974 91.0509 36.9129L92.4382 21.2978L97.2018 21.7267L96.9623 24.4552ZM98.4217 23.0926L98.5299 21.8491L99.9217 21.9745L98.4217 23.0926ZM106.668 15.4588L104.129 19.4765C104.004 19.6732 103.98 19.9263 104.07 20.1433L105.864 24.5551L99.5291 23.981L102.173 22.0107L102.194 21.9921C102.2 21.9868 102.211 21.9821 102.217 21.9767C102.229 21.9661 102.236 21.955 102.245 21.9471C102.263 21.9311 102.275 21.9147 102.291 21.8956C102.303 21.8792 102.316 21.8627 102.331 21.8437C102.344 21.8214 102.357 21.805 102.37 21.7827C102.38 21.7631 102.39 21.7435 102.397 21.7265C102.404 21.7038 102.414 21.6841 102.422 21.6614C102.429 21.6386 102.434 21.6185 102.438 21.5983C102.446 21.5755 102.448 21.5522 102.45 21.5289C102.451 21.5173 102.454 21.5088 102.455 21.503L103.017 15.132L106.668 15.4588ZM90.6108 7.95732C90.6454 7.58184 90.813 7.24533 91.0867 7.00397C91.3604 6.76261 91.707 6.64558 92.0603 6.67891C92.4137 6.71225 92.7356 6.88649 92.9618 7.17207C93.1881 7.45766 93.2965 7.82021 93.2619 8.1957C93.1937 8.96731 92.5411 9.54286 91.8123 9.47411C91.1026 9.41009 90.5446 8.70564 90.6108 7.95732ZM89.1306 36.03L91.3566 10.8463L91.6853 10.8744L92.0141 10.9024L91.1719 20.4796L89.7906 36.0894L89.1306 36.03ZM93.3664 10.8039L101.993 11.5826L101.189 20.6789L92.5622 19.9002L93.3664 10.8039Z" fill="#79AEA3"/>
<path d="M99.3147 17.1521L98.2213 15.7717L99.5415 14.6074C99.8242 14.3581 99.8647 13.9127 99.631 13.6176C99.3972 13.3225 98.9776 13.2829 98.6919 13.5348L97.3716 14.6992L96.2782 13.3189C96.0444 13.0238 95.6248 12.9842 95.3391 13.2361C95.0564 13.4855 95.0159 13.9308 95.2497 14.226L96.3431 15.6063L95.0229 16.7707C94.7402 17.02 94.6997 17.4654 94.9335 17.7605C95.1672 18.0556 95.5868 18.0952 95.8725 17.8432L97.1928 16.6788L98.2862 18.0592C98.52 18.3543 98.9396 18.3939 99.2253 18.1419C99.5135 17.8931 99.551 17.4504 99.3147 17.1521Z" fill="#79AEA3"/>
<path d="M97.0448 38C97.0448 36.6739 96.2959 35.4021 94.9629 34.4645C93.6298 33.5268 91.8219 33 89.9367 33C88.0515 33 86.2435 33.5268 84.9105 34.4645C83.5775 35.4021 82.8286 36.6739 82.8286 38L89.9367 38H97.0448Z" fill="#79AEA3"/>
</svg>
