<svg width="189" height="143" viewBox="0 0 189 143" fill="none" xmlns="http://www.w3.org/2000/svg">
<path d="M131.258 22.46C131.169 22.63 131.156 22.8195 131.21 22.992C131.263 23.1606 131.384 23.3121 131.554 23.4008L140.237 27.8872C140.453 28.0001 140.717 27.9904 140.93 27.859C141.139 27.7288 141.269 27.4984 141.266 27.254L141.191 21.6958L145.836 18.5785C146.043 18.4404 146.159 18.2059 146.146 17.9601C146.13 17.7155 145.992 17.496 145.771 17.3843L141.319 15.0833L142.588 12.6778C142.769 12.3366 142.637 11.9172 142.293 11.7409L134.299 7.61093C134.615 7.36952 134.885 7.06493 135.082 6.68888C135.43 6.02826 135.499 5.27442 135.276 4.56488C135.053 3.85535 134.565 3.27636 133.902 2.93344C133.239 2.59051 132.482 2.52667 131.765 2.752C131.051 2.97611 130.463 3.46231 130.119 4.12169C129.771 4.78231 129.702 5.53615 129.925 6.24568C129.956 6.34369 129.994 6.43923 130.032 6.53085L117.702 29.9266C117.616 30.0915 117.599 30.2822 117.654 30.4586C117.71 30.635 117.833 30.7814 117.998 30.8675L119.859 31.829C120.203 32.0052 120.626 31.8723 120.804 31.5323L128.073 17.7496L132.525 20.0506L131.258 22.46ZM133.189 21.7931L133.766 20.6947L135.067 21.3671L133.189 21.7931ZM144.075 18.0852L140.091 20.7579C139.895 20.8884 139.775 21.1111 139.78 21.3464L139.844 26.1156L133.925 23.0522L137.234 22.3015L137.261 22.2928C137.269 22.2904 137.282 22.2906 137.29 22.2881C137.305 22.2832 137.316 22.2756 137.328 22.2719C137.351 22.2645 137.37 22.2544 137.392 22.2431C137.41 22.2331 137.429 22.223 137.451 22.2117C137.472 22.1964 137.49 22.1864 137.511 22.1711C137.528 22.1571 137.546 22.1431 137.559 22.1304C137.575 22.1125 137.592 22.0985 137.608 22.0805C137.624 22.0626 137.636 22.0459 137.648 22.0293C137.664 22.0113 137.674 21.9907 137.685 21.9701C137.69 21.9598 137.697 21.9534 137.7 21.9483L140.662 16.3234L144.075 18.0852ZM131.364 4.76845C131.54 4.43752 131.831 4.19565 132.187 4.0836C132.544 3.97155 132.924 4.00285 133.254 4.17493C133.584 4.34701 133.829 4.63589 133.94 4.9887C134.051 5.3415 134.018 5.71781 133.842 6.04873C133.484 6.72995 132.633 6.99716 131.953 6.64224C131.29 6.29932 131.016 5.42906 131.364 4.76845ZM119.278 29.9528L130.991 7.71973L131.299 7.87713L131.606 8.03454L127.157 16.4913L119.895 30.2715L119.278 29.9528ZM132.954 8.48553L141.017 12.6544L136.786 20.6848L128.723 16.5159L132.954 8.48553Z" fill="#E6E2E8"/>
<path d="M136.308 16.696L135.773 14.9908L137.494 14.4502C137.862 14.3344 138.07 13.9417 137.956 13.5771C137.841 13.2126 137.45 13.0082 137.077 13.1252L135.356 13.6658L134.821 11.9605C134.706 11.596 134.315 11.3916 133.942 11.5086C133.574 11.6243 133.366 12.0171 133.48 12.3817L134.016 14.0869L132.295 14.6275C131.926 14.7432 131.718 15.1359 131.833 15.5005C131.947 15.8651 132.339 16.0694 132.711 15.9524L134.432 15.4119L134.968 17.1171C135.082 17.4817 135.474 17.686 135.846 17.569C136.22 17.456 136.424 17.0645 136.308 16.696Z" fill="#E6E2E8"/>
<path d="M185.938 136.032H184.477L128.878 33.1365C128.564 32.5548 128.07 32.0903 127.47 31.8131L113.348 25.2834C111.881 24.6045 110.138 25.1842 109.37 26.6064L91.2523 60.1247L85.9721 52.2047C85.4864 51.476 84.712 50.9902 83.845 50.8702C82.9767 50.7498 82.1003 51.007 81.4349 51.5764L70.6542 60.7982L60.796 59.7365C59.6603 59.6153 58.5533 60.1333 57.9205 61.0828L7.97678 136.032H3.06156C1.37076 136.032 0 137.403 0 139.094C0 140.785 1.37076 142.156 3.06156 142.156H45.5147C46.0474 142.156 46.5712 142.016 47.0337 141.752L68.3743 129.558L89.715 141.752C90.1861 142.021 90.7102 142.156 91.2339 142.156C91.7793 142.156 92.3247 142.01 92.8092 141.719L107.562 132.867L122.316 141.719C122.792 142.005 123.336 142.156 123.891 142.156H185.938C187.629 142.156 189 140.785 189 139.094C189 137.403 187.629 136.032 185.938 136.032ZM113.389 32.0482L123.976 36.943L137.536 62.0396L124.859 57.8138C123.759 57.4477 122.546 57.7334 121.726 58.5535L113.867 66.4127L100.566 55.772L113.389 32.0482ZM95.3397 65.44L97.6065 61.246L112.182 72.9061C112.743 73.3555 113.42 73.5772 114.093 73.5772C114.881 73.5772 115.664 73.2747 116.259 72.6803L124.718 64.2215L141.79 69.9123L177.517 136.032H141.858L95.0695 65.8502C95.1678 65.722 95.2605 65.5869 95.3397 65.44ZM61.9867 66.0237L71.3126 67.0279C72.1531 67.1189 72.9895 66.8585 73.6308 66.3103L82.7922 58.4731L97.2823 80.2081L90.9029 88.7139L80.3364 78.1479C79.7282 77.5396 78.8918 77.2123 78.0329 77.2543C77.1736 77.2931 76.3703 77.6919 75.8196 78.3528L61.4128 95.6412L48.9139 85.6422L61.9867 66.0237ZM109.138 126.672C108.168 126.09 106.956 126.09 105.987 126.672L91.1964 135.546L69.8933 123.373C68.9519 122.836 67.7963 122.836 66.8554 123.373L44.7016 136.032H15.3351L45.5057 90.7562L59.9314 102.297C60.4955 102.748 61.1707 102.968 61.8422 102.968C62.7202 102.968 63.5914 102.592 64.1959 101.866L78.3779 84.8478L89.07 95.5396C89.6979 96.1674 90.5665 96.4931 91.4519 96.4286C92.3369 96.3658 93.1517 95.9216 93.684 95.2118L100.885 85.6107L134.499 136.032H124.739L109.138 126.672Z" fill="#E6E2E8"/>
</svg>
