<svg width="323" height="185" viewBox="0 0 323 185" fill="none" xmlns="http://www.w3.org/2000/svg">
<rect width="323" height="184" fill="#F5F5F5"/>
<path d="M254.258 64.46C254.169 64.63 254.156 64.8195 254.21 64.992C254.263 65.1606 254.384 65.3121 254.554 65.4008L263.237 69.8872C263.453 70.0001 263.717 69.9904 263.93 69.859C264.139 69.7288 264.269 69.4984 264.266 69.254L264.191 63.6958L268.836 60.5785C269.043 60.4404 269.159 60.2059 269.146 59.9601C269.13 59.7155 268.992 59.496 268.771 59.3843L264.319 57.0833L265.588 54.6778C265.769 54.3366 265.637 53.9172 265.293 53.7409L257.299 49.6109C257.615 49.3695 257.885 49.0649 258.082 48.6889C258.43 48.0283 258.499 47.2744 258.276 46.5649C258.053 45.8553 257.565 45.2764 256.902 44.9334C256.239 44.5905 255.482 44.5267 254.765 44.752C254.051 44.9761 253.463 45.4623 253.119 46.1217C252.771 46.7823 252.702 47.5361 252.925 48.2457C252.956 48.3437 252.994 48.4392 253.032 48.5308L240.702 71.9266C240.616 72.0915 240.599 72.2822 240.654 72.4586C240.71 72.635 240.833 72.7814 240.998 72.8675L242.859 73.829C243.203 74.0052 243.626 73.8723 243.804 73.5323L251.073 59.7496L255.525 62.0506L254.258 64.46ZM256.189 63.7931L256.766 62.6947L258.067 63.3671L256.189 63.7931ZM267.075 60.0852L263.091 62.7579C262.895 62.8884 262.775 63.1111 262.78 63.3464L262.844 68.1156L256.925 65.0522L260.234 64.3015L260.261 64.2928C260.269 64.2904 260.282 64.2906 260.29 64.2881C260.305 64.2832 260.316 64.2756 260.328 64.2719C260.351 64.2645 260.37 64.2544 260.392 64.2431C260.41 64.2331 260.429 64.223 260.451 64.2117C260.472 64.1964 260.49 64.1864 260.511 64.1711C260.528 64.1571 260.546 64.1431 260.559 64.1304C260.575 64.1125 260.592 64.0985 260.608 64.0805C260.624 64.0626 260.636 64.0459 260.648 64.0293C260.664 64.0113 260.674 63.9907 260.685 63.9701C260.69 63.9598 260.697 63.9534 260.7 63.9483L263.662 58.3234L267.075 60.0852ZM254.364 46.7684C254.54 46.4375 254.831 46.1957 255.187 46.0836C255.544 45.9715 255.924 46.0029 256.254 46.1749C256.584 46.347 256.829 46.6359 256.94 46.9887C257.051 47.3415 257.018 47.7178 256.842 48.0487C256.484 48.73 255.633 48.9972 254.953 48.6422C254.29 48.2993 254.016 47.4291 254.364 46.7684ZM242.278 71.9528L253.991 49.7197L254.299 49.8771L254.606 50.0345L250.157 58.4913L242.895 72.2715L242.278 71.9528ZM255.954 50.4855L264.017 54.6544L259.786 62.6848L251.723 58.5159L255.954 50.4855Z" fill="#E6E2E8"/>
<path d="M259.308 58.696L258.773 56.9908L260.494 56.4502C260.862 56.3344 261.07 55.9417 260.956 55.5771C260.841 55.2126 260.45 55.0082 260.077 55.1252L258.356 55.6658L257.821 53.9605C257.706 53.596 257.315 53.3916 256.942 53.5086C256.574 53.6243 256.366 54.0171 256.48 54.3817L257.016 56.0869L255.295 56.6275C254.926 56.7432 254.718 57.1359 254.833 57.5005C254.947 57.8651 255.339 58.0694 255.711 57.9524L257.432 57.4119L257.968 59.1171C258.082 59.4817 258.474 59.686 258.846 59.569C259.22 59.456 259.424 59.0645 259.308 58.696Z" fill="#E6E2E8"/>
<path d="M308.938 178.032H307.477L251.878 75.1365C251.564 74.5548 251.07 74.0903 250.47 73.8131L236.348 67.2834C234.881 66.6045 233.138 67.1842 232.37 68.6064L214.252 102.125L208.972 94.2047C208.486 93.476 207.712 92.9903 206.845 92.8702C205.977 92.7498 205.1 93.007 204.435 93.5764L193.654 102.798L183.796 101.736C182.66 101.615 181.553 102.133 180.921 103.083L130.977 178.032H126.062C124.371 178.032 123 179.403 123 181.094C123 182.785 124.371 184.156 126.062 184.156H168.515C169.047 184.156 169.571 184.016 170.034 183.752L191.374 171.558L212.715 183.752C213.186 184.021 213.71 184.156 214.234 184.156C214.779 184.156 215.325 184.01 215.809 183.719L230.562 174.867L245.316 183.719C245.792 184.005 246.336 184.156 246.891 184.156H308.938C310.629 184.156 312 182.785 312 181.094C312 179.403 310.629 178.032 308.938 178.032ZM236.389 74.0482L246.976 78.943L260.536 104.04L247.859 99.8138C246.759 99.4477 245.546 99.7334 244.726 100.554L236.867 108.413L223.566 97.772L236.389 74.0482ZM218.34 107.44L220.606 103.246L235.182 114.906C235.743 115.356 236.42 115.577 237.093 115.577C237.881 115.577 238.664 115.275 239.259 114.68L247.718 106.221L264.79 111.912L300.517 178.032H264.858L218.069 107.85C218.168 107.722 218.26 107.587 218.34 107.44ZM184.987 108.024L194.313 109.028C195.153 109.119 195.99 108.858 196.631 108.31L205.792 100.473L220.282 122.208L213.903 130.714L203.336 120.148C202.728 119.54 201.892 119.212 201.033 119.254C200.174 119.293 199.37 119.692 198.82 120.353L184.413 137.641L171.914 127.642L184.987 108.024ZM232.138 168.672C231.168 168.09 229.956 168.09 228.987 168.672L214.196 177.546L192.893 165.373C191.952 164.836 190.796 164.836 189.855 165.373L167.702 178.032H138.335L168.506 132.756L182.931 144.297C183.496 144.748 184.171 144.968 184.842 144.968C185.72 144.968 186.591 144.592 187.196 143.866L201.378 126.848L212.07 137.54C212.698 138.167 213.567 138.493 214.452 138.429C215.337 138.366 216.152 137.922 216.684 137.212L223.885 127.611L257.499 178.032H247.739L232.138 168.672Z" fill="#E6E2E8"/>
</svg>
