<svg id="wave" style="transform:rotate(180deg); transition: 0.3s" viewBox="0 0 1440 350"
    version="1.1" xmlns="http://www.w3.org/2000/svg">
    <defs>
        <linearGradient id="sw-gradient-0" x1="0" x2="0" y1="1" y2="0">
            <stop stop-color="rgba(1, 22, 56, 1)" offset="0%"></stop>
            <stop stop-color="rgba(13, 33, 161, 1)" offset="100%"></stop>
        </linearGradient>
    </defs>
    <path style="transform:translate(0, 0px); opacity:1" fill="url(#sw-gradient-0)"
        d="M0,140L48,116.7C96,93,192,47,288,23.3C384,0,480,0,576,52.5C672,105,768,210,864,227.5C960,245,1056,175,1152,128.3C1248,82,1344,58,1440,93.3C1536,128,1632,222,1728,227.5C1824,233,1920,152,2016,122.5C2112,93,2208,117,2304,134.2C2400,152,2496,163,2592,175C2688,187,2784,198,2880,210C2976,222,3072,233,3168,239.2C3264,245,3360,245,3456,210C3552,175,3648,105,3744,116.7C3840,128,3936,222,4032,233.3C4128,245,4224,175,4320,151.7C4416,128,4512,152,4608,145.8C4704,140,4800,105,4896,87.5C4992,70,5088,70,5184,81.7C5280,93,5376,117,5472,140C5568,163,5664,187,5760,210C5856,233,5952,257,6048,227.5C6144,198,6240,117,6336,70C6432,23,6528,12,6624,17.5C6720,23,6816,47,6864,58.3L6912,70L6912,350L6864,350C6816,350,6720,350,6624,350C6528,350,6432,350,6336,350C6240,350,6144,350,6048,350C5952,350,5856,350,5760,350C5664,350,5568,350,5472,350C5376,350,5280,350,5184,350C5088,350,4992,350,4896,350C4800,350,4704,350,4608,350C4512,350,4416,350,4320,350C4224,350,4128,350,4032,350C3936,350,3840,350,3744,350C3648,350,3552,350,3456,350C3360,350,3264,350,3168,350C3072,350,2976,350,2880,350C2784,350,2688,350,2592,350C2496,350,2400,350,2304,350C2208,350,2112,350,2016,350C1920,350,1824,350,1728,350C1632,350,1536,350,1440,350C1344,350,1248,350,1152,350C1056,350,960,350,864,350C768,350,672,350,576,350C480,350,384,350,288,350C192,350,96,350,48,350L0,350Z"></path>
    <defs>
        <linearGradient id="sw-gradient-1" x1="0" x2="0" y1="1" y2="0">
            <stop stop-color="rgba(1, 22, 56, 1)" offset="0%"></stop>
            <stop stop-color="rgba(13, 33, 161, 1)" offset="100%"></stop>
        </linearGradient>
    </defs>
    <path style="transform:translate(0, 50px); opacity:0.9" fill="url(#sw-gradient-1)"
        d="M0,315L48,280C96,245,192,175,288,140C384,105,480,105,576,93.3C672,82,768,58,864,93.3C960,128,1056,222,1152,268.3C1248,315,1344,315,1440,291.7C1536,268,1632,222,1728,198.3C1824,175,1920,175,2016,175C2112,175,2208,175,2304,163.3C2400,152,2496,128,2592,145.8C2688,163,2784,222,2880,239.2C2976,257,3072,233,3168,186.7C3264,140,3360,70,3456,58.3C3552,47,3648,93,3744,93.3C3840,93,3936,47,4032,70C4128,93,4224,187,4320,239.2C4416,292,4512,303,4608,303.3C4704,303,4800,292,4896,280C4992,268,5088,257,5184,227.5C5280,198,5376,152,5472,128.3C5568,105,5664,105,5760,110.8C5856,117,5952,128,6048,122.5C6144,117,6240,93,6336,122.5C6432,152,6528,233,6624,245C6720,257,6816,198,6864,169.2L6912,140L6912,350L6864,350C6816,350,6720,350,6624,350C6528,350,6432,350,6336,350C6240,350,6144,350,6048,350C5952,350,5856,350,5760,350C5664,350,5568,350,5472,350C5376,350,5280,350,5184,350C5088,350,4992,350,4896,350C4800,350,4704,350,4608,350C4512,350,4416,350,4320,350C4224,350,4128,350,4032,350C3936,350,3840,350,3744,350C3648,350,3552,350,3456,350C3360,350,3264,350,3168,350C3072,350,2976,350,2880,350C2784,350,2688,350,2592,350C2496,350,2400,350,2304,350C2208,350,2112,350,2016,350C1920,350,1824,350,1728,350C1632,350,1536,350,1440,350C1344,350,1248,350,1152,350C1056,350,960,350,864,350C768,350,672,350,576,350C480,350,384,350,288,350C192,350,96,350,48,350L0,350Z"></path>
    <defs>
        <linearGradient id="sw-gradient-2" x1="0" x2="0" y1="1" y2="0">
            <stop stop-color="rgba(1, 22, 56, 1)" offset="0%"></stop>
            <stop stop-color="rgba(13, 33, 161, 1)" offset="100%"></stop>
        </linearGradient>
    </defs>
    <path style="transform:translate(0, 100px); opacity:0.8" fill="url(#sw-gradient-2)"
        d="M0,105L48,87.5C96,70,192,35,288,52.5C384,70,480,140,576,157.5C672,175,768,140,864,122.5C960,105,1056,105,1152,134.2C1248,163,1344,222,1440,239.2C1536,257,1632,233,1728,204.2C1824,175,1920,140,2016,134.2C2112,128,2208,152,2304,175C2400,198,2496,222,2592,221.7C2688,222,2784,198,2880,192.5C2976,187,3072,198,3168,175C3264,152,3360,93,3456,87.5C3552,82,3648,128,3744,163.3C3840,198,3936,222,4032,215.8C4128,210,4224,175,4320,151.7C4416,128,4512,117,4608,116.7C4704,117,4800,128,4896,128.3C4992,128,5088,117,5184,93.3C5280,70,5376,35,5472,35C5568,35,5664,70,5760,81.7C5856,93,5952,82,6048,70C6144,58,6240,47,6336,35C6432,23,6528,12,6624,17.5C6720,23,6816,47,6864,58.3L6912,70L6912,350L6864,350C6816,350,6720,350,6624,350C6528,350,6432,350,6336,350C6240,350,6144,350,6048,350C5952,350,5856,350,5760,350C5664,350,5568,350,5472,350C5376,350,5280,350,5184,350C5088,350,4992,350,4896,350C4800,350,4704,350,4608,350C4512,350,4416,350,4320,350C4224,350,4128,350,4032,350C3936,350,3840,350,3744,350C3648,350,3552,350,3456,350C3360,350,3264,350,3168,350C3072,350,2976,350,2880,350C2784,350,2688,350,2592,350C2496,350,2400,350,2304,350C2208,350,2112,350,2016,350C1920,350,1824,350,1728,350C1632,350,1536,350,1440,350C1344,350,1248,350,1152,350C1056,350,960,350,864,350C768,350,672,350,576,350C480,350,384,350,288,350C192,350,96,350,48,350L0,350Z"></path>
</svg>