<?xml version="1.0" encoding="utf-8"?>
<!-- Uploaded to: SVG Repo, www.svgrepo.com, Generator: SVG Repo Mixer Tools -->
<svg width="800px" height="800px" viewBox="0 0 1024 1024" class="icon"  version="1.1" xmlns="http://www.w3.org/2000/svg"><path d="M512.7 236.1c-0.6 0-1.2 0.2-1.8 0.2-0.6-0.1-1.2-0.2-1.8-0.2-102.1 0-189.5 52.6-235.5 143l47.2 29.7c37.1-69.9 108.5-115.3 188.4-115.3 0.6 0 1.2-0.2 1.8-0.2 0.6 0 1.2 0.2 1.8 0.2 79.9 0 151.2 45.4 188.4 115.3l47.2-29.7c-46.2-90.4-133.7-143-235.7-143z" fill="#F4867B" /><path d="M704.1 596.7c6.4-5.4 14.5-8.8 23.4-8.8 20.4 0 37 38 37 38v113.9s-16.6 38-37 38c-9 0-17-3.4-23.4-8.8V596.7zM728.4 477.9c-5.4 18.3 5.1 37.5 23.3 42.9 18.3 5.4 37.5-5.1 42.9-23.4 5.4-18.3-5.1-37.5-23.4-42.9-18.2-5.3-37.4 5.2-42.8 23.4z" fill="#CDE9E3" /><path d="M634.8 773.9c0 18 15.5 32.5 34.5 32.5 19.1 0 34.5-14.6 34.5-32.5V597.3c0-18-15.5-32.5-34.5-32.5-19.1 0-34.5 14.6-34.5 32.5v176.6z" fill="#F4867B" /><path d="M317.6 596.7c-6.4-5.4-14.5-8.8-23.4-8.8-20.4 0-37 38-37 38v113.9s16.6 38 37 38c9 0 17-3.4 23.4-8.8V596.7zM293.3 477.9c5.4 18.3-5.1 37.5-23.3 42.9-18.3 5.4-37.5-5.1-42.9-23.4-5.4-18.3 5.1-37.5 23.4-42.9 18.2-5.3 37.4 5.2 42.8 23.4z" fill="#CDE9E3" /><path d="M386.9 773.9c0 18-15.5 32.5-34.5 32.5-19.1 0-34.5-14.6-34.5-32.5V597.3c0-18 15.5-32.5 34.5-32.5 19.1 0 34.5 14.6 34.5 32.5v176.6z" fill="#F4867B" /><path d="M807 462.9c-6.6-12.1-17.6-21-30.8-24.9-2.5-0.7-5.1-1.3-7.7-1.6-5.3-14.8-11.9-29.1-16.9-39.1l5.8-3.6c7.6-4.8 10.2-14.5 6.2-22.4-48.6-95.5-142.4-152.5-250.9-152.5-0.6 0-1.3 0-1.8 0.1-0.6-0.1-1.2-0.1-1.8-0.1-108.5 0-202.3 57-250.9 152.4-4 8-1.4 17.7 6.2 22.4l6.5 4.1c-5.3 10-12.2 24.1-17.5 38.7-2.6 0.4-5.2 0.9-7.7 1.6-13.3 3.9-24.2 12.8-30.8 24.9-6.6 12.2-8.1 26.1-4.2 39.4 2.7 9.2 8 17.1 14.7 23.3v46.6c0 4.7 1.9 9.2 5.4 12.5l19.2 18.2c-4.4 7.1-7.3 13.3-8.5 16-1 2.2-1.4 4.5-1.4 6.9v113.9c0 2.4 0.5 4.7 1.4 6.9 3.5 8.1 22.6 48.3 52.8 48.3 3.7 0 7.2-0.5 10.8-1.2 8 17.6 26.2 29.9 47.4 29.9 28.6 0 51.8-22.3 51.8-49.8V597.3c0-27.5-23.2-49.8-51.8-49.8-19.2 0-35.9 10.1-44.9 25-4.3-1.1-8.8-1.9-13.3-1.9-7.8 0-14.8 2.7-21.1 6.8l-13.3-12.6v-25.3h0.4c5 0 9.9-0.7 14.7-2.1 13.3-3.9 24.2-12.8 30.8-24.9 6.6-12.1 8.1-26.1 4.2-39.4-3.7-12.4-11.9-22.6-22.5-29.2 4-10.2 8.7-20 12.8-27.7l11.3 7.1c4.1 2.6 9 3.3 13.6 2.1 4.6-1.2 8.6-4.3 10.8-8.6 34.7-65.5 101-106.1 173-106.1 0.6 0 1.3 0 1.8-0.1 0.6 0.1 1.2 0.1 1.8 0.1 72 0 138.3 40.7 173.1 106.1 2.3 4.2 6.2 7.3 10.8 8.6 1.5 0.4 3 0.6 4.4 0.6a17 17 0 0 0 9.2-2.7l12-7.5c3.8 7.8 8.3 17.8 12.2 28-10.6 6.6-18.9 16.8-22.6 29.2-3.9 13.3-2.4 27.3 4.2 39.4 6.6 12.1 17.6 21 30.8 24.9 4.8 1.4 9.7 2.1 14.7 2.1h0.4v25.3l-13.3 12.6c-6.2-4.1-13.3-6.8-21.1-6.8-4.6 0-9 0.8-13.3 1.9-9-14.9-25.7-25-44.9-25-28.6 0-51.8 22.3-51.8 49.8v176.6c0 27.5 23.2 49.8 51.8 49.8 21.2 0 39.4-12.3 47.4-29.9 3.5 0.7 7.1 1.2 10.8 1.2 30.2 0 49.3-40.3 52.8-48.3 1-2.2 1.4-4.5 1.4-6.9V625.8c0-2.4-0.5-4.7-1.4-6.9-1.2-2.7-4.1-8.9-8.5-16l19.2-18.2c3.4-3.3 5.4-7.8 5.4-12.5v-46.6c6.8-6.2 12-14.1 14.7-23.3 4.1-13.2 2.6-27.2-4-39.4zM335.1 597.3c0-8.4 7.7-15.3 17.3-15.3 9.5 0 17.3 6.8 17.3 15.3v176.6c0 8.4-7.7 15.3-17.3 15.3-9.5 0-17.3-6.9-17.3-15.3V597.3z m-60.7 32.3c6.4-13 15.8-24.1 19.7-24.5 2.3 0 4.4 0.4 6.2 1.1v153.1c-1.8 0.7-3.9 1.1-6.1 1.1-4-0.5-13.4-11.6-19.8-24.5V629.6z m2.9-140.8c0 0.5-0.1 0.9-0.1 1.3-0.1 0.7-0.3 1.4-0.4 2.1-0.1 0.3-0.2 0.7-0.3 1-0.3 0.8-0.6 1.5-0.9 2.2-0.1 0.1-0.1 0.3-0.2 0.4-0.1 0.1-0.2 0.2-0.2 0.4-0.4 0.7-0.9 1.4-1.4 2-0.2 0.2-0.4 0.5-0.6 0.7-0.5 0.6-1.1 1.2-1.7 1.7-0.2 0.2-0.5 0.4-0.7 0.6-0.7 0.5-1.4 1-2.1 1.4-0.2 0.1-0.4 0.2-0.7 0.4-0.8 0.4-1.7 0.7-2.5 1-0.1 0-0.2 0.1-0.3 0.1h-0.2c-1.5 0.4-3 0.7-4.7 0.7-7.7 0-14.1-5.1-16.4-12-0.1-0.2-0.1-0.3-0.2-0.4 0-0.1 0-0.2-0.1-0.4-0.2-0.8-0.4-1.5-0.5-2.3-0.1-0.4-0.1-0.8-0.1-1.2 0-0.3-0.1-0.6-0.1-1s0.1-0.7 0.1-1.1c0-0.5 0.1-0.9 0.1-1.4 0.1-0.7 0.2-1.4 0.4-2 0.1-0.4 0.2-0.8 0.4-1.2 0.2-0.7 0.5-1.4 0.9-2 0.1-0.2 0.1-0.4 0.2-0.6 0.1-0.2 0.2-0.3 0.3-0.5l1.2-1.8c0.3-0.4 0.6-0.7 0.9-1 0.4-0.5 0.9-0.9 1.3-1.3 0.4-0.3 0.7-0.6 1.1-0.9 0.5-0.4 1-0.7 1.6-1 0.4-0.2 0.8-0.5 1.3-0.7 0.6-0.3 1.2-0.5 1.9-0.8 0.3-0.1 0.5-0.2 0.7-0.3 0.1 0 0.3 0 0.4-0.1 1.4-0.4 2.9-0.7 4.5-0.7 1.8 0 3.4 0.3 5 0.8 0.3 0.1 0.5 0.1 0.8 0.2 1.6 0.6 3.1 1.3 4.4 2.3 0.1 0.1 0.2 0.2 0.3 0.2 1.4 1.1 2.6 2.3 3.6 3.7 1 1.4 1.7 3 2.3 4.7 0 0.1 0.1 0.2 0.2 0.3 0 0.2 0.1 0.3 0.1 0.5 0.2 0.7 0.3 1.4 0.4 2.1 0.1 0.4 0.1 0.9 0.1 1.3 0 0.3 0.1 0.6 0.1 1-0.1 0.9-0.1 1.3-0.2 1.6zM707 384.6c-42.5-67.1-115-108.1-193.4-108.4-0.5-0.1-1-0.1-1.5-0.2-0.8-0.1-1.6-0.1-2.3 0-0.3 0-0.9 0.1-1.5 0.2-78.4 0.3-151 41.3-193.5 108.4l-18.3-11.5c44.2-75 122.2-119.5 211.7-119.7 0.5 0.1 1 0.1 1.3 0.1 0.9 0.1 1.9 0.1 2.8 0 0.4 0 0.8-0.1 1.3-0.1 89.6 0.3 167.6 44.7 211.7 119.7L707 384.6z m-20.4 389.3c0 8.4-7.7 15.3-17.3 15.3-9.5 0-17.3-6.9-17.3-15.3V597.3c0-8.4 7.7-15.3 17.3-15.3 9.5 0 17.3 6.8 17.3 15.3v176.6z m60.6-37.9c-5.9 11.9-15.4 24-19.8 24.5-2.3 0-4.3-0.4-6.1-1.1V606.2c1.8-0.7 3.8-1.1 6.1-1.1 4 0.5 13.4 11.5 19.8 24.5V736z m31.4-246.1c-0.1 0.8-0.2 1.6-0.4 2.3 0 0.1 0 0.2-0.1 0.4 0 0.2-0.1 0.3-0.2 0.4-2.2 6.9-8.7 12-16.4 12-1.7 0-3.2-0.3-4.7-0.7h-0.2c-0.1 0-0.2-0.1-0.3-0.1-0.9-0.3-1.8-0.6-2.6-1l-0.6-0.3c-0.7-0.4-1.5-0.9-2.1-1.4-0.2-0.2-0.5-0.4-0.7-0.6-0.6-0.5-1.2-1.1-1.7-1.7-0.2-0.2-0.4-0.5-0.6-0.7-0.5-0.6-1-1.3-1.4-2-0.1-0.1-0.2-0.2-0.2-0.4-0.1-0.1-0.1-0.3-0.2-0.4-0.4-0.7-0.7-1.5-1-2.2-0.1-0.3-0.2-0.7-0.3-1-0.2-0.7-0.3-1.4-0.4-2.1-0.1-0.4-0.1-0.9-0.1-1.3s-0.1-0.7-0.1-1.1c0-0.3 0.1-0.6 0.1-1s0.1-0.9 0.1-1.3c0.1-0.7 0.2-1.4 0.4-2.1 0-0.2 0.1-0.3 0.1-0.5 0-0.1 0.1-0.2 0.2-0.3 0.5-1.7 1.3-3.3 2.3-4.7 1-1.4 2.2-2.7 3.6-3.7 0.1-0.1 0.2-0.2 0.3-0.2 1.3-1 2.8-1.8 4.4-2.3 0.3-0.1 0.5-0.2 0.8-0.2 1.6-0.5 3.3-0.8 5-0.8 1.6 0 3 0.3 4.5 0.7 0.1 0 0.3 0 0.4 0.1 0.3 0.1 0.5 0.2 0.7 0.3 0.6 0.2 1.3 0.5 1.9 0.8 0.4 0.2 0.9 0.4 1.3 0.7 0.5 0.3 1.1 0.6 1.6 1 0.4 0.3 0.8 0.6 1.1 0.9 0.5 0.4 0.9 0.9 1.3 1.3 0.3 0.3 0.6 0.7 0.9 1 0.4 0.6 0.8 1.1 1.2 1.8 0.1 0.2 0.2 0.3 0.3 0.5 0.1 0.2 0.1 0.4 0.2 0.6 0.3 0.6 0.6 1.3 0.9 2 0.1 0.4 0.3 0.8 0.4 1.2 0.2 0.7 0.3 1.3 0.4 2 0.1 0.5 0.1 0.9 0.1 1.4 0 0.4 0.1 0.7 0.1 1.1 0 0.3-0.1 0.6-0.1 1-0.1-0.2-0.2 0.2-0.2 0.6z" fill="#211F1E" /></svg>